<?xml version="1.0" encoding="UTF-8" standalone="no"?>
<!-- Created with Inkscape (http://www.inkscape.org/) -->
<svg id="svg2" xmlns:rdf="http://www.w3.org/1999/02/22-rdf-syntax-ns#" xmlns="http://www.w3.org/2000/svg" xml:space="preserve" height="418" width="418" version="1.1" xmlns:cc="http://creativecommons.org/ns#" xmlns:xlink="http://www.w3.org/1999/xlink" viewBox="0 0 418 418" xmlns:dc="http://purl.org/dc/elements/1.1/"><metadata id="metadata2229"><rdf:RDF><cc:Work rdf:about=""><dc:format>image/svg+xml</dc:format><dc:type rdf:resource="http://purl.org/dc/dcmitype/StillImage"/><dc:title/></cc:Work></rdf:RDF></metadata><defs id="defs2227"><linearGradient id="linearGradient8285" y2="50.795" gradientUnits="userSpaceOnUse" x2="364.39" y1="143.17" x1="389.05"><stop id="stop33" stop-color="#FFF" offset="0"/><stop id="stop35" stop-color="#fffde5" offset="0"/><stop id="stop37" stop-color="#fffabc" offset="0"/><stop id="stop39" stop-color="#fff896" offset="0"/><stop id="stop41" stop-color="#fff676" offset="0"/><stop id="stop43" stop-color="#fff45a" offset="0"/><stop id="stop45" stop-color="#fff344" offset="0"/><stop id="stop47" stop-color="#fff133" offset="0"/><stop id="stop49" stop-color="#fff128" offset="0"/><stop id="stop51" stop-color="#fff021" offset="0"/><stop id="stop53" stop-color="#fff01f" offset="0"/><stop id="stop55" stop-color="#fff021" offset="0"/><stop id="stop57" stop-color="#fff128" offset="0"/><stop id="stop59" stop-color="#fff134" offset="0"/><stop id="stop61" stop-color="#fff346" offset="0"/><stop id="stop63" stop-color="#fff45c" offset="0"/><stop id="stop65" stop-color="#fff678" offset="0"/><stop id="stop67" stop-color="#fff89a" offset="0"/><stop id="stop69" stop-color="#fffbc0" offset="0"/><stop id="stop71" stop-color="#fffeeb" offset="0"/><stop id="stop73" stop-color="#FFF" offset="0"/><stop id="stop75" stop-color="#fffffc" offset="0"/><stop id="stop77" stop-color="#fffef4" offset="0"/><stop id="stop79" stop-color="#fffde5" offset="0"/><stop id="stop81" stop-color="#fffccf" offset="0"/><stop id="stop83" stop-color="#fffab4" offset="0"/><stop id="stop85" stop-color="#fff892" offset="0"/><stop id="stop87" stop-color="#fff56a" offset="0"/><stop id="stop89" stop-color="#fff23d" offset="0"/><stop id="stop91" stop-color="#fff01f" offset="0"/><stop id="stop93" stop-color="#fcee1f" offset="0.2132"/><stop id="stop95" stop-color="#f4e51e" offset="0.3485"/><stop id="stop97" stop-color="#e5d81c" offset="0.4623"/><stop id="stop99" stop-color="#d0c419" offset="0.5641"/><stop id="stop101" stop-color="#b5ab16" offset="0.6579"/><stop id="stop103" stop-color="#948b12" offset="0.7458"/><stop id="stop105" stop-color="#6c660d" offset="0.8293"/><stop id="stop107" stop-color="#3f3b08" offset="0.909"/><stop id="stop109" stop-color="#0c0c02" offset="0.9833"/><stop id="stop111" stop-color="#000" offset="1"/></linearGradient><linearGradient id="linearGradient8287" y2="91.536" gradientUnits="userSpaceOnUse" x2="400.31" y1="272.86" x1="401.33"><stop id="stop116" stop-color="#FFF" offset="0"/><stop id="stop118" stop-color="#fffde5" offset="0"/><stop id="stop120" stop-color="#fffabc" offset="0"/><stop id="stop122" stop-color="#fff896" offset="0"/><stop id="stop124" stop-color="#fff676" offset="0"/><stop id="stop126" stop-color="#fff45a" offset="0"/><stop id="stop128" stop-color="#fff344" offset="0"/><stop id="stop130" stop-color="#fff133" offset="0"/><stop id="stop132" stop-color="#fff128" offset="0"/><stop id="stop134" stop-color="#fff021" offset="0"/><stop id="stop136" stop-color="#fff01f" offset="0"/><stop id="stop138" stop-color="#fff021" offset="0"/><stop id="stop140" stop-color="#fff128" offset="0"/><stop id="stop142" stop-color="#fff134" offset="0"/><stop id="stop144" stop-color="#fff346" offset="0"/><stop id="stop146" stop-color="#fff45c" offset="0"/><stop id="stop148" stop-color="#fff678" offset="0"/><stop id="stop150" stop-color="#fff89a" offset="0"/><stop id="stop152" stop-color="#fffbc0" offset="0"/><stop id="stop154" stop-color="#fffeeb" offset="0"/><stop id="stop156" stop-color="#FFF" offset="0"/><stop id="stop158" stop-color="#fffffc" offset="0"/><stop id="stop160" stop-color="#fffef4" offset="0"/><stop id="stop162" stop-color="#fffde5" offset="0"/><stop id="stop164" stop-color="#fffccf" offset="0"/><stop id="stop166" stop-color="#fffab4" offset="0"/><stop id="stop168" stop-color="#fff892" offset="0"/><stop id="stop170" stop-color="#fff56a" offset="0"/><stop id="stop172" stop-color="#fff23d" offset="0"/><stop id="stop174" stop-color="#fff01f" offset="0"/><stop id="stop176" stop-color="#fdee1f" offset="0.3726"/><stop id="stop178" stop-color="#f6e81e" offset="0.5069"/><stop id="stop180" stop-color="#ebdd1d" offset="0.6026"/><stop id="stop182" stop-color="#dacd1a" offset="0.68"/><stop id="stop184" stop-color="#c4b818" offset="0.7463"/><stop id="stop186" stop-color="#a89e14" offset="0.805"/><stop id="stop188" stop-color="#888011" offset="0.8581"/><stop id="stop190" stop-color="#625c0c" offset="0.9069"/><stop id="stop192" stop-color="#373407" offset="0.9523"/><stop id="stop194" stop-color="#090901" offset="0.9926"/><stop id="stop196" stop-color="#000" offset="1"/></linearGradient><linearGradient id="linearGradient8289" y2="111.94" gradientUnits="userSpaceOnUse" x2="491.02" y1="291.84" x1="447.55"><stop id="stop201" stop-color="#FFF" offset="0"/><stop id="stop203" stop-color="#fffde5" offset="0"/><stop id="stop205" stop-color="#fffabc" offset="0"/><stop id="stop207" stop-color="#fff896" offset="0"/><stop id="stop209" stop-color="#fff676" offset="0"/><stop id="stop211" stop-color="#fff45a" offset="0"/><stop id="stop213" stop-color="#fff344" offset="0"/><stop id="stop215" stop-color="#fff133" offset="0"/><stop id="stop217" stop-color="#fff128" offset="0"/><stop id="stop219" stop-color="#fff021" offset="0"/><stop id="stop221" stop-color="#fff01f" offset="0"/><stop id="stop223" stop-color="#fff021" offset="0"/><stop id="stop225" stop-color="#fff128" offset="0"/><stop id="stop227" stop-color="#fff134" offset="0"/><stop id="stop229" stop-color="#fff346" offset="0"/><stop id="stop231" stop-color="#fff45c" offset="0"/><stop id="stop233" stop-color="#fff678" offset="0"/><stop id="stop235" stop-color="#fff89a" offset="0"/><stop id="stop237" stop-color="#fffbc0" offset="0"/><stop id="stop239" stop-color="#fffeeb" offset="0"/><stop id="stop241" stop-color="#FFF" offset="0"/><stop id="stop243" stop-color="#fffffc" offset="0"/><stop id="stop245" stop-color="#fffef4" offset="0"/><stop id="stop247" stop-color="#fffde5" offset="0"/><stop id="stop249" stop-color="#fffccf" offset="0"/><stop id="stop251" stop-color="#fffab4" offset="0"/><stop id="stop253" stop-color="#fff892" offset="0"/><stop id="stop255" stop-color="#fff56a" offset="0"/><stop id="stop257" stop-color="#fff23d" offset="0"/><stop id="stop259" stop-color="#fff01f" offset="0"/><stop id="stop261" stop-color="#fdee1f" offset="0.3726"/><stop id="stop263" stop-color="#f6e81e" offset="0.5069"/><stop id="stop265" stop-color="#ebdd1d" offset="0.6026"/><stop id="stop267" stop-color="#dacd1a" offset="0.68"/><stop id="stop269" stop-color="#c4b818" offset="0.7463"/><stop id="stop271" stop-color="#a89e14" offset="0.805"/><stop id="stop273" stop-color="#888011" offset="0.8581"/><stop id="stop275" stop-color="#625c0c" offset="0.9069"/><stop id="stop277" stop-color="#373407" offset="0.9523"/><stop id="stop279" stop-color="#090901" offset="0.9926"/><stop id="stop281" stop-color="#000" offset="1"/></linearGradient><linearGradient id="linearGradient8291" y2="150.83" gradientUnits="userSpaceOnUse" x2="221.07" y1="180.16" x1="303.74"><stop id="stop286" stop-color="#FFF" offset="0"/><stop id="stop288" stop-color="#fffde5" offset="0"/><stop id="stop290" stop-color="#fffabc" offset="0"/><stop id="stop292" stop-color="#fff896" offset="0"/><stop id="stop294" stop-color="#fff676" offset="0"/><stop id="stop296" stop-color="#fff45a" offset="0"/><stop id="stop298" stop-color="#fff344" offset="0"/><stop id="stop300" stop-color="#fff133" offset="0"/><stop id="stop302" stop-color="#fff128" offset="0"/><stop id="stop304" stop-color="#fff021" offset="0"/><stop id="stop306" stop-color="#fff01f" offset="0"/><stop id="stop308" stop-color="#fff021" offset="0"/><stop id="stop310" stop-color="#fff128" offset="0"/><stop id="stop312" stop-color="#fff134" offset="0"/><stop id="stop314" stop-color="#fff346" offset="0"/><stop id="stop316" stop-color="#fff45c" offset="0"/><stop id="stop318" stop-color="#fff678" offset="0"/><stop id="stop320" stop-color="#fff89a" offset="0"/><stop id="stop322" stop-color="#fffbc0" offset="0"/><stop id="stop324" stop-color="#fffeeb" offset="0"/><stop id="stop326" stop-color="#FFF" offset="0"/><stop id="stop328" stop-color="#fffffc" offset="0"/><stop id="stop330" stop-color="#fffef4" offset="0"/><stop id="stop332" stop-color="#fffde5" offset="0"/><stop id="stop334" stop-color="#fffccf" offset="0"/><stop id="stop336" stop-color="#fffab4" offset="0"/><stop id="stop338" stop-color="#fff892" offset="0"/><stop id="stop340" stop-color="#fff56a" offset="0"/><stop id="stop342" stop-color="#fff23d" offset="0"/><stop id="stop344" stop-color="#fff01f" offset="0"/><stop id="stop346" stop-color="#fdee1f" offset="0.3726"/><stop id="stop348" stop-color="#f6e81e" offset="0.5069"/><stop id="stop350" stop-color="#ebdd1d" offset="0.6026"/><stop id="stop352" stop-color="#dacd1a" offset="0.68"/><stop id="stop354" stop-color="#c4b818" offset="0.7463"/><stop id="stop356" stop-color="#a89e14" offset="0.805"/><stop id="stop358" stop-color="#888011" offset="0.8581"/><stop id="stop360" stop-color="#625c0c" offset="0.9069"/><stop id="stop362" stop-color="#373407" offset="0.9523"/><stop id="stop364" stop-color="#090901" offset="0.9926"/><stop id="stop366" stop-color="#000" offset="1"/></linearGradient><linearGradient id="linearGradient8297" y2="290.29" gradientUnits="userSpaceOnUse" x2="189.69" y1="319.14" x1="299.83"><stop id="stop575" stop-color="#FFF" offset="0"/><stop id="stop577" stop-color="#fffde5" offset="0"/><stop id="stop579" stop-color="#fffabc" offset="0"/><stop id="stop581" stop-color="#fff896" offset="0"/><stop id="stop583" stop-color="#fff676" offset="0"/><stop id="stop585" stop-color="#fff45a" offset="0"/><stop id="stop587" stop-color="#fff344" offset="0"/><stop id="stop589" stop-color="#fff133" offset="0"/><stop id="stop591" stop-color="#fff128" offset="0"/><stop id="stop593" stop-color="#fff021" offset="0"/><stop id="stop595" stop-color="#fff01f" offset="0"/><stop id="stop597" stop-color="#fff021" offset="0"/><stop id="stop599" stop-color="#fff128" offset="0"/><stop id="stop601" stop-color="#fff134" offset="0"/><stop id="stop603" stop-color="#fff346" offset="0"/><stop id="stop605" stop-color="#fff45c" offset="0"/><stop id="stop607" stop-color="#fff678" offset="0"/><stop id="stop609" stop-color="#fff89a" offset="0"/><stop id="stop611" stop-color="#fffbc0" offset="0"/><stop id="stop613" stop-color="#fffeeb" offset="0"/><stop id="stop615" stop-color="#FFF" offset="0"/><stop id="stop617" stop-color="#fffffc" offset="0"/><stop id="stop619" stop-color="#fffef4" offset="0"/><stop id="stop621" stop-color="#fffde5" offset="0"/><stop id="stop623" stop-color="#fffccf" offset="0"/><stop id="stop625" stop-color="#fffab4" offset="0"/><stop id="stop627" stop-color="#fff892" offset="0"/><stop id="stop629" stop-color="#fff56a" offset="0"/><stop id="stop631" stop-color="#fff23d" offset="0"/><stop id="stop633" stop-color="#fff01f" offset="0"/><stop id="stop635" stop-color="#fdee20" offset="0"/><stop id="stop637" stop-color="#f6e925" offset="0"/><stop id="stop639" stop-color="#ebe02d" offset="0"/><stop id="stop641" stop-color="#dad238" offset="0"/><stop id="stop643" stop-color="#c4c047" offset="0"/><stop id="stop645" stop-color="#a8aa59" offset="0"/><stop id="stop647" stop-color="#88906e" offset="0"/><stop id="stop649" stop-color="#647387" offset="0"/><stop id="stop651" stop-color="#3b52a2" offset="0"/><stop id="stop653" stop-color="#3951a3" offset="0"/><stop id="stop655" stop-color="#3850a1" offset="0.4077"/><stop id="stop657" stop-color="#364d9a" offset="0.5545"/><stop id="stop659" stop-color="#32478f" offset="0.6592"/><stop id="stop661" stop-color="#2c3e7e" offset="0.7439"/><stop id="stop663" stop-color="#243368" offset="0.8164"/><stop id="stop665" stop-color="#1b264c" offset="0.8806"/><stop id="stop667" stop-color="#0f162c" offset="0.9386"/><stop id="stop669" stop-color="#030408" offset="0.9902"/><stop id="stop671" stop-color="#000" offset="1"/></linearGradient><linearGradient id="linearGradient8299" y2="319.7" gradientUnits="userSpaceOnUse" x2="386.72" y1="348.46" x1="496.53"><stop id="stop676" stop-color="#FFF" offset="0"/><stop id="stop678" stop-color="#fffde5" offset="0"/><stop id="stop680" stop-color="#fffabc" offset="0"/><stop id="stop682" stop-color="#fff896" offset="0"/><stop id="stop684" stop-color="#fff676" offset="0"/><stop id="stop686" stop-color="#fff45a" offset="0"/><stop id="stop688" stop-color="#fff344" offset="0"/><stop id="stop690" stop-color="#fff133" offset="0"/><stop id="stop692" stop-color="#fff128" offset="0"/><stop id="stop694" stop-color="#fff021" offset="0"/><stop id="stop696" stop-color="#fff01f" offset="0"/><stop id="stop698" stop-color="#fff021" offset="0"/><stop id="stop700" stop-color="#fff128" offset="0"/><stop id="stop702" stop-color="#fff134" offset="0"/><stop id="stop704" stop-color="#fff346" offset="0"/><stop id="stop706" stop-color="#fff45c" offset="0"/><stop id="stop708" stop-color="#fff678" offset="0"/><stop id="stop710" stop-color="#fff89a" offset="0"/><stop id="stop712" stop-color="#fffbc0" offset="0"/><stop id="stop714" stop-color="#fffeeb" offset="0"/><stop id="stop716" stop-color="#FFF" offset="0"/><stop id="stop718" stop-color="#fffffc" offset="0"/><stop id="stop720" stop-color="#fffef4" offset="0"/><stop id="stop722" stop-color="#fffde5" offset="0"/><stop id="stop724" stop-color="#fffccf" offset="0"/><stop id="stop726" stop-color="#fffab4" offset="0"/><stop id="stop728" stop-color="#fff892" offset="0"/><stop id="stop730" stop-color="#fff56a" offset="0"/><stop id="stop732" stop-color="#fff23d" offset="0"/><stop id="stop734" stop-color="#fff01f" offset="0"/><stop id="stop736" stop-color="#fdee20" offset="0"/><stop id="stop738" stop-color="#f6e925" offset="0"/><stop id="stop740" stop-color="#ebe02d" offset="0"/><stop id="stop742" stop-color="#dad238" offset="0"/><stop id="stop744" stop-color="#c4c047" offset="0"/><stop id="stop746" stop-color="#a8aa59" offset="0"/><stop id="stop748" stop-color="#88906e" offset="0"/><stop id="stop750" stop-color="#647387" offset="0"/><stop id="stop752" stop-color="#3b52a2" offset="0"/><stop id="stop754" stop-color="#3951a3" offset="0"/><stop id="stop756" stop-color="#3850a1" offset="0.4077"/><stop id="stop758" stop-color="#364d9a" offset="0.5545"/><stop id="stop760" stop-color="#32478f" offset="0.6592"/><stop id="stop762" stop-color="#2c3e7e" offset="0.7439"/><stop id="stop764" stop-color="#243368" offset="0.8164"/><stop id="stop766" stop-color="#1b264c" offset="0.8806"/><stop id="stop768" stop-color="#0f162c" offset="0.9386"/><stop id="stop770" stop-color="#030408" offset="0.9902"/><stop id="stop772" stop-color="#000" offset="1"/></linearGradient><linearGradient id="linearGradient8301" y2="348.95" gradientUnits="userSpaceOnUse" x2="308.22" y1="299.95" x1="262.22"><stop id="stop777" stop-color="#FFF" offset="0"/><stop id="stop779" stop-color="#fffde5" offset="0"/><stop id="stop781" stop-color="#fffabc" offset="0"/><stop id="stop783" stop-color="#fff896" offset="0"/><stop id="stop785" stop-color="#fff676" offset="0"/><stop id="stop787" stop-color="#fff45a" offset="0"/><stop id="stop789" stop-color="#fff344" offset="0"/><stop id="stop791" stop-color="#fff133" offset="0"/><stop id="stop793" stop-color="#fff128" offset="0"/><stop id="stop795" stop-color="#fff021" offset="0"/><stop id="stop797" stop-color="#fff01f" offset="0"/><stop id="stop799" stop-color="#fff021" offset="0"/><stop id="stop801" stop-color="#fff128" offset="0"/><stop id="stop803" stop-color="#fff134" offset="0"/><stop id="stop805" stop-color="#fff346" offset="0"/><stop id="stop807" stop-color="#fff45c" offset="0"/><stop id="stop809" stop-color="#fff678" offset="0"/><stop id="stop811" stop-color="#fff89a" offset="0"/><stop id="stop813" stop-color="#fffbc0" offset="0"/><stop id="stop815" stop-color="#fffeeb" offset="0"/><stop id="stop817" stop-color="#FFF" offset="0"/><stop id="stop819" stop-color="#fffffc" offset="0"/><stop id="stop821" stop-color="#fffef4" offset="0"/><stop id="stop823" stop-color="#fffde5" offset="0"/><stop id="stop825" stop-color="#fffccf" offset="0"/><stop id="stop827" stop-color="#fffab4" offset="0"/><stop id="stop829" stop-color="#fff892" offset="0"/><stop id="stop831" stop-color="#fff56a" offset="0"/><stop id="stop833" stop-color="#fff23d" offset="0"/><stop id="stop835" stop-color="#fff01f" offset="0"/><stop id="stop837" stop-color="#fdee20" offset="0"/><stop id="stop839" stop-color="#f6e925" offset="0"/><stop id="stop841" stop-color="#ebe02d" offset="0"/><stop id="stop843" stop-color="#dad238" offset="0"/><stop id="stop845" stop-color="#c4c047" offset="0"/><stop id="stop847" stop-color="#a8aa59" offset="0"/><stop id="stop849" stop-color="#88906e" offset="0"/><stop id="stop851" stop-color="#647387" offset="0"/><stop id="stop853" stop-color="#3b52a2" offset="0"/><stop id="stop855" stop-color="#3951a3" offset="0"/><stop id="stop857" stop-color="#3853a4" offset="0.2781"/><stop id="stop859" stop-color="#365ba9" offset="0.4318"/><stop id="stop861" stop-color="#3169b0" offset="0.5551"/><stop id="stop863" stop-color="#2b7dba" offset="0.6623"/><stop id="stop865" stop-color="#2296c8" offset="0.7591"/><stop id="stop867" stop-color="#18b5d8" offset="0.8483"/><stop id="stop869" stop-color="#0cd9eb" offset="0.9301"/><stop id="stop871" stop-color="#0FF" offset="1"/></linearGradient><linearGradient id="linearGradient8303" y2="353.18" gradientUnits="userSpaceOnUse" x2="512.72" y1="313.18" x1="477.72"><stop id="stop876" stop-color="#FFF" offset="0"/><stop id="stop878" stop-color="#fffde5" offset="0"/><stop id="stop880" stop-color="#fffabc" offset="0"/><stop id="stop882" stop-color="#fff896" offset="0"/><stop id="stop884" stop-color="#fff676" offset="0"/><stop id="stop886" stop-color="#fff45a" offset="0"/><stop id="stop888" stop-color="#fff344" offset="0"/><stop id="stop890" stop-color="#fff133" offset="0"/><stop id="stop892" stop-color="#fff128" offset="0"/><stop id="stop894" stop-color="#fff021" offset="0"/><stop id="stop896" stop-color="#fff01f" offset="0"/><stop id="stop898" stop-color="#fff021" offset="0"/><stop id="stop900" stop-color="#fff128" offset="0"/><stop id="stop902" stop-color="#fff134" offset="0"/><stop id="stop904" stop-color="#fff346" offset="0"/><stop id="stop906" stop-color="#fff45c" offset="0"/><stop id="stop908" stop-color="#fff678" offset="0"/><stop id="stop910" stop-color="#fff89a" offset="0"/><stop id="stop912" stop-color="#fffbc0" offset="0"/><stop id="stop914" stop-color="#fffeeb" offset="0"/><stop id="stop916" stop-color="#FFF" offset="0"/><stop id="stop918" stop-color="#fffffc" offset="0"/><stop id="stop920" stop-color="#fffef4" offset="0"/><stop id="stop922" stop-color="#fffde5" offset="0"/><stop id="stop924" stop-color="#fffccf" offset="0"/><stop id="stop926" stop-color="#fffab4" offset="0"/><stop id="stop928" stop-color="#fff892" offset="0"/><stop id="stop930" stop-color="#fff56a" offset="0"/><stop id="stop932" stop-color="#fff23d" offset="0"/><stop id="stop934" stop-color="#fff01f" offset="0"/><stop id="stop936" stop-color="#fdee20" offset="0"/><stop id="stop938" stop-color="#f6e925" offset="0"/><stop id="stop940" stop-color="#ebe02d" offset="0"/><stop id="stop942" stop-color="#dad238" offset="0"/><stop id="stop944" stop-color="#c4c047" offset="0"/><stop id="stop946" stop-color="#a8aa59" offset="0"/><stop id="stop948" stop-color="#88906e" offset="0"/><stop id="stop950" stop-color="#647387" offset="0"/><stop id="stop952" stop-color="#3b52a2" offset="0"/><stop id="stop954" stop-color="#3951a3" offset="0"/><stop id="stop956" stop-color="#3853a4" offset="0.4024"/><stop id="stop958" stop-color="#365aa8" offset="0.5473"/><stop id="stop960" stop-color="#3265ae" offset="0.6506"/><stop id="stop962" stop-color="#2d76b7" offset="0.7342"/><stop id="stop964" stop-color="#268cc2" offset="0.8057"/><stop id="stop966" stop-color="#1da8d1" offset="0.8691"/><stop id="stop968" stop-color="#12c8e2" offset="0.9265"/><stop id="stop970" stop-color="#06ecf5" offset="0.9774"/><stop id="stop972" stop-color="#0FF" offset="1"/></linearGradient><linearGradient id="linearGradient8305" y2="234.69" gradientUnits="userSpaceOnUse" x2="265.19" y1="274.69" x1="257.85"><stop id="stop977" stop-color="#FFF" offset="0"/><stop id="stop979" stop-color="#fffde5" offset="0"/><stop id="stop981" stop-color="#fffabc" offset="0"/><stop id="stop983" stop-color="#fff896" offset="0"/><stop id="stop985" stop-color="#fff676" offset="0"/><stop id="stop987" stop-color="#fff45a" offset="0"/><stop id="stop989" stop-color="#fff344" offset="0"/><stop id="stop991" stop-color="#fff133" offset="0"/><stop id="stop993" stop-color="#fff128" offset="0"/><stop id="stop995" stop-color="#fff021" offset="0"/><stop id="stop997" stop-color="#fff01f" offset="0"/><stop id="stop999" stop-color="#fff021" offset="0"/><stop id="stop1001" stop-color="#fff128" offset="0"/><stop id="stop1003" stop-color="#fff134" offset="0"/><stop id="stop1005" stop-color="#fff346" offset="0"/><stop id="stop1007" stop-color="#fff45c" offset="0"/><stop id="stop1009" stop-color="#fff678" offset="0"/><stop id="stop1011" stop-color="#fff89a" offset="0"/><stop id="stop1013" stop-color="#fffbc0" offset="0"/><stop id="stop1015" stop-color="#fffeeb" offset="0"/><stop id="stop1017" stop-color="#FFF" offset="0"/><stop id="stop1019" stop-color="#fffffc" offset="0"/><stop id="stop1021" stop-color="#fffef4" offset="0"/><stop id="stop1023" stop-color="#fffde5" offset="0"/><stop id="stop1025" stop-color="#fffccf" offset="0"/><stop id="stop1027" stop-color="#fffab4" offset="0"/><stop id="stop1029" stop-color="#fff892" offset="0"/><stop id="stop1031" stop-color="#fff56a" offset="0"/><stop id="stop1033" stop-color="#fff23d" offset="0"/><stop id="stop1035" stop-color="#fff01f" offset="0"/><stop id="stop1037" stop-color="#fdee20" offset="0"/><stop id="stop1039" stop-color="#f6e925" offset="0"/><stop id="stop1041" stop-color="#ebe02d" offset="0"/><stop id="stop1043" stop-color="#dad238" offset="0"/><stop id="stop1045" stop-color="#c4c047" offset="0"/><stop id="stop1047" stop-color="#a8aa59" offset="0"/><stop id="stop1049" stop-color="#88906e" offset="0"/><stop id="stop1051" stop-color="#647387" offset="0"/><stop id="stop1053" stop-color="#3b52a2" offset="0"/><stop id="stop1055" stop-color="#3951a3" offset="0"/><stop id="stop1057" stop-color="#3850a1" offset="0.4077"/><stop id="stop1059" stop-color="#364d9a" offset="0.5545"/><stop id="stop1061" stop-color="#32478f" offset="0.6592"/><stop id="stop1063" stop-color="#2c3e7e" offset="0.7439"/><stop id="stop1065" stop-color="#243368" offset="0.8164"/><stop id="stop1067" stop-color="#1b264c" offset="0.8806"/><stop id="stop1069" stop-color="#0f162c" offset="0.9386"/><stop id="stop1071" stop-color="#030408" offset="0.9902"/><stop id="stop1073" stop-color="#000" offset="1"/></linearGradient><linearGradient id="linearGradient8307" y2="240.55" gradientUnits="userSpaceOnUse" x2="481.03" y1="295.22" x1="485.7"><stop id="stop1078" stop-color="#FFF" offset="0"/><stop id="stop1080" stop-color="#fffde5" offset="0"/><stop id="stop1082" stop-color="#fffabc" offset="0"/><stop id="stop1084" stop-color="#fff896" offset="0"/><stop id="stop1086" stop-color="#fff676" offset="0"/><stop id="stop1088" stop-color="#fff45a" offset="0"/><stop id="stop1090" stop-color="#fff344" offset="0"/><stop id="stop1092" stop-color="#fff133" offset="0"/><stop id="stop1094" stop-color="#fff128" offset="0"/><stop id="stop1096" stop-color="#fff021" offset="0"/><stop id="stop1098" stop-color="#fff01f" offset="0"/><stop id="stop1100" stop-color="#fff021" offset="0"/><stop id="stop1102" stop-color="#fff128" offset="0"/><stop id="stop1104" stop-color="#fff134" offset="0"/><stop id="stop1106" stop-color="#fff346" offset="0"/><stop id="stop1108" stop-color="#fff45c" offset="0"/><stop id="stop1110" stop-color="#fff678" offset="0"/><stop id="stop1112" stop-color="#fff89a" offset="0"/><stop id="stop1114" stop-color="#fffbc0" offset="0"/><stop id="stop1116" stop-color="#fffeeb" offset="0"/><stop id="stop1118" stop-color="#FFF" offset="0"/><stop id="stop1120" stop-color="#fffffc" offset="0"/><stop id="stop1122" stop-color="#fffef4" offset="0"/><stop id="stop1124" stop-color="#fffde5" offset="0"/><stop id="stop1126" stop-color="#fffccf" offset="0"/><stop id="stop1128" stop-color="#fffab4" offset="0"/><stop id="stop1130" stop-color="#fff892" offset="0"/><stop id="stop1132" stop-color="#fff56a" offset="0"/><stop id="stop1134" stop-color="#fff23d" offset="0"/><stop id="stop1136" stop-color="#fff01f" offset="0"/><stop id="stop1138" stop-color="#fdee20" offset="0"/><stop id="stop1140" stop-color="#f6e925" offset="0"/><stop id="stop1142" stop-color="#ebe02d" offset="0"/><stop id="stop1144" stop-color="#dad238" offset="0"/><stop id="stop1146" stop-color="#c4c047" offset="0"/><stop id="stop1148" stop-color="#a8aa59" offset="0"/><stop id="stop1150" stop-color="#88906e" offset="0"/><stop id="stop1152" stop-color="#647387" offset="0"/><stop id="stop1154" stop-color="#3b52a2" offset="0"/><stop id="stop1156" stop-color="#3951a3" offset="0"/><stop id="stop1158" stop-color="#3850a1" offset="0.4077"/><stop id="stop1160" stop-color="#364d9a" offset="0.5545"/><stop id="stop1162" stop-color="#32478f" offset="0.6592"/><stop id="stop1164" stop-color="#2c3e7e" offset="0.7439"/><stop id="stop1166" stop-color="#243368" offset="0.8164"/><stop id="stop1168" stop-color="#1b264c" offset="0.8806"/><stop id="stop1170" stop-color="#0f162c" offset="0.9386"/><stop id="stop1172" stop-color="#030408" offset="0.9902"/><stop id="stop1174" stop-color="#000" offset="1"/></linearGradient></defs><path id="polygon17" fill="#ffddbf" d="m168,306.22-4.667,14.667,4,10-14,2.667-47.333,14,0.666,4,16.667,17.333,37.333,19.333,54,13.334,40.001,3.333,34.666-8,4.667,0.667-7.163-0.18391,2.34-1.3598,3.2193,0.14412,2.9367-2.5099-0.5792,0.0434,1.0235,2.2826,3.49-3.2767,5.2064-4.7363,0.41383-1.6037,6-3.0928,2.2826-3.3635-1.0928,3.3599,0.42314-0.7104,3.9261-1.3903-3.0938,3.0633,4-11.333-30.666,0-19.334,3.333-18-1.333-16-36.667-14-26.666,2-5.334-22.667-6-30.666,6z"/><g id="Layer_3" transform="translate(-155.17113,-24.281618)">
			<path id="path26" fill="#fff01f" d="m241.17,231.17-4-77.333,3.333-39.334,9.333-21.333,22.333,39.5,18.167,29.5,20.167-25,47.333-44s40-25.333,42-25.333,48-22,48-22l18-6-16,20-28.667,31.333-20.667,32-13.333,26.667,26-11.333,31.333-14.667,40-5.333,25.334-2.667-17.333,10.666-17.333,20,4,3.333,37.333-6,52-4.667-14,18-16,26.667,3.334,24.667-18,36-51.334,8-53.333,18-38.667,26-13.333-4.667-18.667,2-6.667-23.333-5.333-14.667-46-6.667-38-13.333-11.333-4.666z"/>
		</g><g id="Layer_5" transform="translate(-155.17113,-24.281618)">
			<path id="path29" fill="#3951a3" d="m237.83,376.5-29.333-21.333-34.667-23.333-15.333-12s2.667-10,2.667-12,14.667-29.334,14.667-29.334l16.167-31,46.167-16.667,39.667,15,55.333,10.667,3.833,0.25,12.167,37.083,12.667-3.333,10.667,1.333,7.333,4.667,31.333-24.333,50.001-18.333,45.331-9.334,15.334,2,11.333,7.333,13.666,18-2.333,3.333,4,14,1.334,11.333,8.666,6-8,46h-12.666l-18,40-15.334,5.334-34.666-1.334-32.667,0.667-16,2.667-17.333-0.667-30.667-62,2.667-7.333-11.333-2.667-16.001-3.333-17.999,4-8,4.666-3.333,13,0.667,11-12.667,1.334-30,10.666-39.335,8.001z"/>
		</g><g id="Layer_9" transform="translate(-155.17113,-24.281618)">
			<polygon id="polygon113" points="365.17,87.833,309.83,136.5,289.83,162.5,400.5,125.83,421.83,88.501,465.83,39.833,460.5,40.5,460.5,40.5" fill="url(#linearGradient8285)"/>
			<path id="path198" fill="url(#linearGradient8287)" d="m505.17,117.17-31.333,2-34,8-38,18s-10.281,4.529-13.334,6.667c-17.673,12.375-100.68,71.889-91.333,91.334,10.512,21.868,104.92-27.555,125.33-40.667,24.991-16.053,82.667-85.334,82.667-85.334z"/>
			<path id="path283" fill="url(#linearGradient8289)" d="m539.83,178.5,27.333-38-31.334-0.333-31,4.333-29.666,6s-39.085,20.935-66,42.667c-20.386,16.461-30.379,33.38-30.667,42-0.347,10.413,158.09,27.837,163.33-22,1.333-12.667-2.667-18-2.667-18l0.667-16.667z"/>
			<polygon id="polygon368" points="237.83,164.5,238.5,127.83,243.17,107.17,250.5,90.5,250.5,90.5,289.83,162.5,267.17,195.17,240.5,228.5,238.5,199.83" fill="url(#linearGradient8291)"/>
		</g><g id="Layer_12" transform="translate(-155.17113,-24.281618)">
			<polygon id="polygon673" points="198.5,302.5,248.5,333.5,299.5,291.5,216.5,269.5,216.5,269.5" fill="url(#linearGradient8297)"/>
			<polygon id="polygon774" points="430.5,300.5,430.5,300.5,393.5,339.5,416.5,372.5,422.5,370.5,473.5,363.5,500.5,304.5" fill="url(#linearGradient8299)"/>
			<polygon id="polygon873" points="299.5,291.5,299.5,291.5,248.5,333.5,288.5,350.5,299.5,349.5,316.5,323.5" fill="url(#linearGradient8301)"/>
			<polygon id="polygon974" points="500.5,304.5,473.5,363.5,509.5,363.5,517.5,303.5,517.5,303.5" fill="url(#linearGradient8303)"/>
			<polygon id="polygon1075" points="190.5,245.83,235.83,257.83,275.83,265.17,303.83,273.17,333.83,256.5,269.17,245.17,239.83,229.17,239.83,229.17" fill="url(#linearGradient8305)"/>
			<polygon id="polygon1176" points="431.17,285.17,423.17,287.83,418.5,267.83,418.5,267.83,470.83,253.17,513.17,245.17,523.83,248.5,548.5,271.17,536.5,277.17,505.17,281.17,459.17,283.83" fill="url(#linearGradient8307)"/>
		</g><g id="g1762" transform="translate(-155.17113,-24.281618)">
				<g id="g1764">
					<path id="path1766" fill="none" d="m242.5,227.5c-4-9-4-45-4-56,0-25-2-57,10-80,13,24,26,48,42,71,46-64,104-97,176-124-15,20-33,36-48,56-12,18-20,37-31,56,20-7,38-20,59-26s44-4,64-10v1c-14,8-28,22-37,35,33-7,64-12,97-12-10,15-36,37-33,56,1,16,9,10-2,28-4,6-8,13-11,20"/>
					<path id="path1768" d="m244.75,226.88c-3.195-7.874-2.896-17.657-3.256-26.003-0.404-9.354-0.524-18.718-0.537-28.08-0.034-26.325-2.833-55.92,9.494-80.157h-3.899c13.063,24.22,26.278,48.37,41.957,71.025,1.04,1.503,2.938,1.452,3.986,0,21.407-29.631,47.698-55.046,78.051-75.412,29.893-20.056,62.967-34.87,96.597-47.426-0.908-1.182-1.817-2.364-2.726-3.546-13.682,17.978-30.242,33.496-44.317,51.149-14.567,18.27-22.99,40.806-34.535,60.938-0.921,1.605,0.61,3.985,2.532,3.294,19.75-7.1,37.27-19.22,57.351-25.5,21.326-6.668,44.484-3.708,65.811-9.915-1.202-0.916-2.404-1.832-3.606-2.747,0.001,0.333,0.002,0.667,0.003,1,0.47-0.819,0.939-1.638,1.409-2.458-15.222,8.973-27.684,21.791-37.774,36.166-1.392,1.983,0.889,4.186,2.892,3.761,31.754-6.735,63.783-11.817,96.319-11.884-0.744-1.296-1.488-2.593-2.232-3.89-11.045,16.194-30.611,30.459-33.38,51.057-0.573,4.266,0.034,8.827,0.982,13.004,0.609,2.684,2.105,5.047,2.727,7.709,0.87,3.727-3.649,9.34-5.381,12.199-3.974,6.563-7.924,12.936-11.033,19.98-1.386,3.139,3.252,5.87,4.635,2.709,2.837-6.486,6.236-12.652,10.047-18.616,2.628-4.114,5.479-8.498,6.706-13.288,0.631-2.467,0.109-4.8-0.871-7.079-1.632-3.793-2.213-7.379-2.737-11.471-1.351-10.537,6.681-21.016,12.739-28.793,6.525-8.377,14.053-16.005,20.031-24.803,1.121-1.651-0.371-3.897-2.232-3.89-32.971,0.127-65.49,5.349-97.681,12.116,0.964,1.254,1.928,2.507,2.892,3.761,5.773-8.193,12.809-15.623,20.279-22.289,3.687-3.289,7.631-6.255,11.744-8.985,2.702-1.793,5.604-2.438,5.614-6.018,0.006-1.841-1.824-3.254-3.606-2.747-5.161,1.47-10.004,2.948-15.348,3.745-5.745,0.856-11.553,1.321-17.333,1.862-11.07,1.037-22.12,2.276-32.813,5.454-20.151,5.988-37.614,18.463-57.345,25.524,0.844,1.098,1.688,2.196,2.532,3.294,11.645-20.238,20.625-42.808,35.275-61.138,13.99-17.482,30.39-32.855,43.88-50.766,1.253-1.663-0.826-4.265-2.726-3.546-34.456,13.052-68.226,28.244-98.902,48.826-30.591,20.524-56.898,46.506-78.45,76.337h3.986c-15.674-22.649-28.896-46.808-42.043-70.975-0.78-1.434-3.139-1.507-3.899,0-12.712,25.217-10.488,54.373-10.505,81.764-0.006,10.003,0.078,20.012,0.582,30.004,0.435,8.617,0.447,18.47,3.86,26.549,1.022,2.425,5.253,0.65,4.261-1.795z"/>
				</g>
			</g><g id="g1770" transform="translate(-155.17113,-24.281618)">
				<g id="g1772">
					<path id="path1774" fill="none" d="m345.5,294.5c7-2,33-10,36,8"/>
					<path id="path1776" d="m345.01,294.78c0.037,0.075,0.073,0.15,0.109,0.225,0.317,0.655,1.113,0.846,1.763,0.717,10.801-2.138,29.309-7.95,32.806,7.272,0.549,2.392,4.01,1.343,3.616-0.996-2.875-17.065-25.513-13.732-37.252-9.286-0.607,0.23-1.218,0.778-1.146,1.505,0.02,0.197,0.017,0.383,0.104,0.563z"/>
				</g>
			</g><g id="g1778" transform="translate(-155.17113,-24.281618)">
				<g id="g1780">
					<path id="path1782" fill="none" d="m330.5,316.5c9-10,31-3,42,2"/>
					<path id="path1784" d="m332.06,317.1c11.311-8.672,28.378-1.457,39.925,3.248,2.021,0.823,3.423-2.564,1.481-3.513-11.489-5.61-32.582-12.716-43.342-2.244-1.271,1.238,0.472,3.632,1.936,2.509z"/>
				</g>
			</g><g id="g1786" transform="translate(-155.17113,-24.281618)">
				<g id="g1788">
					<path id="path1790" fill="none" d="m379.5,298.5c0,3-1,17-3,23"/>
					<path id="path1792" d="m378.68,298.5c-0.311,3.232-1.298,6.98-1.688,10.375-0.33,2.871-0.781,5.724-1.36,8.555-0.316,1.543-0.72,3.132,0.007,4.573,0.25,0.494,0.91,0.605,1.363,0.357,3.29-1.803,3.028-9.06,3.387-12.322,0.439-4,0.204-7.737-0.069-11.538-0.076-1.065-1.54-1.047-1.64,0z"/>
				</g>
			</g><g id="g1794" transform="translate(-155.17113,-24.281618)">
				<g id="g1796">
					<path id="path1798" fill="none" d="m349.5,291.5c-7,8-15,16-20,26"/>
					<path id="path1800" d="m349,291c-8.499,6.807-16.292,15.733-21.245,25.482-1.179,2.32,2.27,4.363,3.501,2.047,5.193-9.768,13.159-17.301,18.867-26.663,0.452-0.742-0.525-1.345-1.123-0.866z"/>
				</g>
			</g><g id="g1802" transform="translate(-155.17113,-24.281618)">
				<g id="g1804">
					<path id="path1806" fill="none" d="m304.5,273.5c3,1,26-14,32-19"/>
					<path id="path1808" d="m304.27,274.32c4.633,1.214,10.143-3.097,14.025-5.391,6.645-3.927,12.815-8.434,19.167-12.784,2.314-1.585-0.347-4.912-2.314-3-4.73,4.595-11.105,8.102-16.654,11.597-2.948,1.857-5.955,3.632-9.013,5.302-0.976,0.533-4.467,2.648-4.982,2.597-0.979-0.1-1.142,1.44-0.229,1.679z"/>
				</g>
			</g><g id="g1810" transform="translate(-155.17113,-24.281618)">
				<g id="g1812">
					<path id="path1814" fill="none" d="m418.5,267.5c0,2,2,17,3,23"/>
					<path id="path1816" d="m417.74,267.5c0.144-0.083,0.288-0.165,0.432-0.248-0.638,0.256-1.152,0.748-1.136,1.492,0.17,7.409,1.376,14.969,2.602,22.271,0.413,2.462,4.116,1.404,3.729-1.028-1.147-7.208-2.067-14.458-3.292-21.653-0.083-0.49-0.602-0.983-1.08-1.081,0.081,0.015,0.162,0.03,0.242,0.045-0.171-0.919-1.403-0.577-1.497,0.202z"/>
				</g>
			</g><g id="g1818" transform="translate(-155.17113,-24.281618)">
				<g id="g1820">
					<path id="path1822" fill="none" d="m376.5,318.5c16-13,38-23,53-33"/>
					<path id="path1824" d="m377.01,319.37c9.57-5.261,18.518-11.844,28.043-17.271,4.687-2.67,9.405-5.282,14.083-7.965,3.801-2.179,9.09-4.267,11.701-7.853,0.858-1.18-0.549-2.543-1.747-2.272-4.114,0.93-8.254,4.638-11.91,6.778-4.654,2.724-9.362,5.355-14.039,8.04-9.259,5.314-20.191,10.862-27.352,18.961-0.752,0.85,0.191,2.149,1.221,1.582z"/>
				</g>
			</g><g id="g1826" transform="translate(-155.17113,-24.281618)">
				<g id="g1828">
					<path id="path1830" fill="none" d="m378.5,297.5c10-9,22-19,34-26,26-9,51-19,78-23,13-2,25-7,36,0,8,5,13,18,22,24"/>
					<path id="path1832" d="m379.03,298.4c6.352-4.27,11.972-9.586,18.083-14.202,7.316-5.525,14.311-10.156,23.017-13.151,16.328-5.617,32.553-11.508,49.279-15.863,8.288-2.158,16.669-3.502,25.085-5.008,7.944-1.422,15.942-3.925,24.06-2.393,13.484,2.545,18.287,19.473,28.667,26.913,2.666,1.911,5.229-2.514,2.566-4.392-11.549-8.145-15.057-23.414-29.965-27.124-7.043-1.752-14.682,0.044-21.606,1.479-8.811,1.827-17.699,3.09-26.459,5.194-17.982,4.319-35.38,10.864-52.742,17.15-3.763,1.362-7.092,2.549-10.476,4.654-4.085,2.541-7.98,5.384-11.813,8.289-6.65,5.04-13.568,10.429-18.96,16.816-0.719,0.853,0.219,2.341,1.264,1.638z"/>
				</g>
			</g><g id="g1834" transform="translate(-155.17113,-24.281618)">
				<g id="g1836">
					<path id="path1838" fill="none" d="m425.5,287.5c37-6,82-5,118-13"/>
					<path id="path1840" d="m425.5,288.66c9.407,0.333,19.164-1.725,28.551-2.517,10.56-0.892,21.141-1.514,31.71-2.288,10.502-0.77,20.996-1.638,31.456-2.86,4.682-0.547,9.351-1.204,14.007-1.941,2.176-0.345,4.344-0.737,6.511-1.139,2.443-0.453,3.77-1.916,5.996-3.021,0.428-0.212,0.198-0.838-0.23-0.852-1.786-0.057-3.587-0.999-5.328-0.662-2.152,0.417-4.309,0.811-6.471,1.183-5.372,0.924-10.781,1.631-16.194,2.268-10.476,1.232-21,2.035-31.518,2.813-9.985,0.739-19.969,1.494-29.938,2.413-9.384,0.864-19.944,1.068-28.859,4.323-1.215,0.445-1.047,2.232,0.307,2.28z"/>
				</g>
			</g><g id="g1842" transform="translate(-155.17113,-24.281618)">
				<g id="g1844">
					<path id="path1846" fill="none" d="m543.5,273.5c17,34-11,86-21,116"/>
					<path id="path1848" d="m542.02,273.91c7.816,20.015,4.213,40.569-1.847,60.573-3.08,10.169-6.934,20.093-10.846,29.964-3.162,7.979-7.838,16.533-8.796,25.055-0.229,2.041,2.733,2.554,3.669,0.994,4.654-7.768,7.194-17.514,10.489-26.001,4.031-10.388,7.869-20.852,10.952-31.564,5.381-18.696,9.537-42.41-0.816-60.204-0.852-1.465-3.452-0.474-2.805,1.183z"/>
				</g>
			</g><g id="g1850" transform="translate(-155.17113,-24.281618)">
				<g id="g1852">
					<path id="path1854" fill="none" d="m321.5,333.5c13-12,41-12,55-1"/>
					<path id="path1856" d="m321.73,333.9c15.392-9.679,38.815-10.771,53.664,0.498,2.246,1.704,4.455-2.111,2.212-3.785-8.281-6.179-18.811-8.357-28.981-8.279-5.468,0.042-10.956,1.028-16.134,2.752-5.007,1.667-8.085,4.169-11.314,8.097-0.312,0.378,0.085,1.011,0.553,0.717z"/>
				</g>
			</g><g id="g1858" transform="translate(-155.17113,-24.281618)">
				<g id="g1860">
					<path id="path1862" fill="none" d="m325.5,335.5c-15,13-1,29,14,32,8,2,50,0,36-15"/>
					<path id="path1864" d="m324.64,334.02c-11.813,7.108-8.276,21.645,0.693,29.203,7.555,6.366,16.792,7.484,26.235,7.176,8.095-0.265,17.467-1.046,24.581-5.273,2.364-1.404,4.587-3.856,4.648-6.75,0.036-1.675-0.422-3.126-1.214-4.586-0.915-1.689-2.776-2.182-3.352-2.536-1.326-0.817-2.546,0.742-1.972,1.972,2.029,4.35,1.926,6.979-3.133,9.078-6.081,2.522-13.052,3.122-19.558,3.436-6.099,0.294-11.889,0.073-17.571-2.404-5.104-2.226-9.801-6.26-11.933-11.48-2.574-6.305,1.511-10.713,4.917-15.493,1.024-1.439-0.939-3.185-2.341-2.343z"/>
				</g>
			</g><g id="g1866" transform="translate(-155.17113,-24.281618)">
				<g id="g1868">
					<path id="path1870" fill="none" d="m373.5,333.5c1,2,8,16,11,21,7,14,15,37,21,45"/>
					<path id="path1872" d="m372.32,333.81c-1.211,3.071,3.698,9.805,5.042,12.454,2.64,5.209,5.486,10.268,7.864,15.604,3.057,6.857,5.859,13.825,8.795,20.735,2.503,5.891,4.918,12.334,8.744,17.524,1.938,2.63,6.264,0.304,4.483-2.621-7.045-11.579-11.607-24.514-17.118-36.854-2.411-5.398-5.348-10.455-8.133-15.659-1.482-2.771-2.917-5.566-4.436-8.319-0.833-1.509-1.458-3.505-3.269-3.985-0.913-0.242-1.649,0.302-1.972,1.121z"/>
				</g>
			</g><g id="g1874" transform="translate(-155.17113,-24.281618)">
				<g id="g1876">
					<path id="path1880" d="m408.5,398.06c0.726,0,0.726-1.125,0-1.125s-0.726,1.125,0,1.125z"/>
				</g>
			</g><g id="g1882" transform="translate(-155.17113,-24.281618)">
				<g id="g1884">
					<path id="path1886" fill="none" d="m406.5,397.5c-5,2-2,0,1,1,12,3,29-3,41-3,22-1,51,6,71-2,1-2,3-5,3-8"/>
					<path id="path1888" d="m406.31,396.8c-0.486-0.016-0.972-0.031-1.458-0.047,0.297,0.729,0.594,1.459,0.89,2.188,0.002-0.005,0.003-0.01,0.004-0.015-0.624,0.475-1.247,0.949-1.87,1.424,3.756-0.459,8.063,1.16,11.933,1.188,5.833,0.04,11.709-1.055,17.445-1.987,11.84-1.923,23.271-1.954,35.219-1.138,12.272,0.839,24.584,2.093,36.876,0.905,5.098-0.492,10.016-1.634,14.843-3.323,3.354-1.174,5.021-7.996,4.188-11.013-0.43-1.556-2.771-1.999-3.556-0.464-1.107,2.167-1.808,4.454-2.978,6.601-0.713,1.309-4.479,1.715-5.834,2.053-5.72,1.427-11.693,1.695-17.563,1.77-11.323,0.143-22.618-1.176-33.917-1.71-10.224-0.484-19.966,0.507-30.026,2.217-5.356,0.91-10.71,1.686-16.153,1.688-3.535,0.001-7.575-1.878-10.993-0.595-0.801,0.3-1.45,0.952-1.424,1.87v0.015c0.063,2.193,3.175,2.631,3.806,0.516,0.377-0.271,0.752-0.543,1.129-0.814,0.751-0.367,0.218-1.552-0.561-1.329z"/>
				</g>
			</g><g id="g1890" transform="translate(-155.17113,-24.281618)">
				<g id="g1892">
					<path id="path1894" fill="none" d="m548.5,303.5c-4-5,8,2,11,3-4,15-8,30-9,45-4,0-9,1-13,0"/>
					<path id="path1896" d="m548.85,303.29c-0.827-1.248-2.201-0.972-0.734-0.112,1.13,0.661,2.418,1.155,3.583,1.767,2.371,1.242,4.76,2.531,7.26,3.501-0.471-0.828-0.94-1.657-1.411-2.485-4.222,15.035-8.295,29.893-9.556,45.537,0.835-0.835,1.669-1.669,2.504-2.504-4.128-0.406-8.858-0.124-13,0.137-2.134,0.135-3.507,3.351-1.194,4.411,4.501,2.065,10.083,1.098,14.86,0.37,1.136-0.173,1.768-1.396,1.838-2.414,1.039-15.022,4.77-29.904,8.444-44.463,0.285-1.13-0.357-2.108-1.411-2.485-3.629-1.3-6.882-3.48-10.715-4.223-0.646-0.125-1.45,0.059-1.762,0.717-0.563,1.189-0.166,1.736,0.649,2.744,0.295,0.362,0.9-0.112,0.645-0.498z"/>
				</g>
			</g><g id="g1898" transform="translate(-155.17113,-24.281618)">
				<g id="g1900">
					<path id="path1902" fill="none" d="m395.5,337.5c13-8,24-24,35-35,33,0,67,0,100-1"/>
					<path id="path1904" d="m395.5,338.14c3.735,0.1,7.085-3.579,9.798-5.863,4.59-3.863,8.595-8.435,12.572-12.907,3.607-4.056,7.139-8.176,10.832-12.154,2.476-2.666,3.928-2.532,7.519-2.521,3.831,0.011,7.662,0.021,11.493,0.03,27.599,0.063,55.198-0.101,82.786-0.92,2.971-0.088,2.979-4.706,0-4.617-27.587,0.819-55.188,0.958-82.786,1.07-3.193,0.013-6.388,0.024-9.582,0.034-2.315,0.008-6.684-0.878-8.732,0.322-1.747,1.023-3.168,3.453-4.556,4.969-2.19,2.395-4.303,4.86-6.425,7.314-3.969,4.589-7.951,9.157-12.219,13.474-1.864,1.887-3.795,3.705-5.783,5.46-1.938,1.71-4.419,2.932-5.474,5.341-0.193,0.44,0.029,0.954,0.557,0.968z"/>
				</g>
			</g><g id="g1906" transform="translate(-155.17113,-24.281618)">
				<g id="g1908">
					<path id="path1910" fill="none" d="m530.5,302.5c0,22-6,56-14,73"/>
					<path id="path1912" d="m529,302.5c-1.544,13.447-2.478,26.709-5.133,40.033-1.242,6.237-2.762,12.416-4.573,18.512-0.86,2.895-1.846,5.749-2.914,8.572-0.831,2.196-2.222,3.99-1.553,6.344,0.328,1.152,1.539,1.506,2.548,1.037,3.717-1.729,5.003-9.799,6.104-13.389,1.998-6.513,3.483-13.182,4.785-19.863,2.555-13.117,5.135-27.87,3.735-41.246-0.202-1.938-2.778-1.922-2.999,0z"/>
				</g>
			</g><g id="g1914" transform="translate(-155.17113,-24.281618)">
				<g id="g1916">
					<path id="path1918" fill="none" d="m503.5,363.5c4,3,12,10,14,13"/>
					<path id="path1920" d="m502.33,364.67c2.088,2.445,4.626,4.541,6.988,6.718,1.257,1.159,2.48,2.354,3.674,3.577,1.025,1.053,1.883,2.393,3.125,3.186,1.677,1.071,3.946-0.692,3.356-2.58-0.861-2.756-4.223-5.105-6.291-6.961-2.664-2.391-5.58-5.019-8.851-6.534-1.714-0.795-3.25,1.132-2.001,2.594z"/>
				</g>
			</g><g id="g1922" transform="translate(-155.17113,-24.281618)">
				<g id="g1924">
					<path id="path1926" fill="none" d="m516.5,303.5c0,21-3,41-5,61"/>
					<path id="path1928" d="m515.46,303.21c-2.188,9.369-1.819,19.684-2.782,29.262-1.075,10.69-2.66,21.327-3.65,32.025-0.296,3.194,4.601,3.118,4.945,0,1.107-10.029,2.111-20.078,3.048-30.125,0.928-9.958,2.731-21.301,0.52-31.162-0.234-1.037-1.841-1.025-2.081,0z"/>
				</g>
			</g><g id="g1930" transform="translate(-155.17113,-24.281618)">
				<g id="g1932">
					<path id="path1934" fill="none" d="m393.5,338.5c9,12,17,28,25,41"/>
					<path id="path1936" d="m392.16,339.28c3.581,7.035,8.389,13.584,12.332,20.443,4.002,6.961,7.676,14.182,12.081,20.9,1.565,2.387,5.272,0.269,3.846-2.248-3.966-6.995-8.116-13.902-12.169-20.85-3.974-6.813-7.943-14.585-13.66-20.12-1.297-1.255-3.218,0.327-2.43,1.875z"/>
				</g>
			</g><g id="g1938" transform="translate(-155.17113,-24.281618)">
				<g id="g1940">
					<path id="path1942" fill="none" d="m422.5,368.5c-2,2-3,5-4,8"/>
					<path id="path1944" d="m421.39,367.39c-1.491,1.202-2.502,2.74-3.334,4.451-0.758,1.559-2.183,3.89-1.003,5.505,0.442,0.605,1.119,1,1.893,0.771,1.915-0.568,2.088-2.531,2.637-4.203,0.537-1.639,1.27-3.215,2.273-4.62,1.12-1.568-1.189-2.934-2.466-1.904z"/>
				</g>
			</g><g id="g1946" transform="translate(-155.17113,-24.281618)">
				<g id="g1948">
					<path id="path1950" fill="none" d="m417.5,370.5c30,1,60-9,90-9"/>
					<path id="path1952" d="m417.5,372.32c14.553,1.306,29.399-1.154,43.752-3.372,15.398-2.381,30.647-4.647,46.248-5.03,3.108-0.076,3.117-4.794,0-4.828-14.672-0.159-29.315,2.392-43.754,4.712-15.416,2.477-30.641,4.29-46.246,4.886-2.371,0.09-2.307,3.425,0,3.632z"/>
				</g>
			</g><g id="g1954" transform="translate(-155.17113,-24.281618)">
				<g id="g1956">
					<path id="path1958" fill="none" d="m417.5,382.5c10-4,29-1,41-2,18-1,35-4,53-4"/>
					<path id="path1960" d="m417.16,383.09c1.697,0.968,3.401,0.173,5.251-0.148,3.88-0.673,7.938-0.59,11.859-0.586,7.252,0.007,14.49,0.634,21.744,0.434,18.528-0.512,36.918-4.434,55.488-3.919,3.057,0.085,3.049-4.854,0-4.734-18.995,0.748-37.813,3.757-56.794,4.428-7.784,0.274-15.577-0.348-23.365-0.165-3.572,0.084-12.987-0.153-14.496,3.924-0.103,0.279,0.066,0.625,0.313,0.766z"/>
				</g>
			</g><g id="g1962" transform="translate(-155.17113,-24.281618)">
				<g id="g1964">
					<path id="path1966" fill="none" d="m191.5,245.5c-2,11.5-7,20.5-17.5,35.5-7.887,11.267-10.5,26-16.5,36"/>
					<path id="path1968" d="m190.01,245.09c-3.906,12.305-9.578,22.527-16.928,33.144-8.033,11.602-10.893,25.34-17.594,37.591-1.445,2.641,2.464,4.925,4.027,2.354,3.408-5.604,5.505-11.964,7.795-18.077,2.847-7.599,6.291-14.364,10.879-21.044,6.79-9.886,14.143-21.22,14.859-33.556,0.106-1.807-2.527-2.021-3.038-0.412z"/>
				</g>
			</g><g id="g1970" transform="translate(-155.17113,-24.281618)">
				<g id="g1972">
					<path id="path1974" fill="none" d="m156.5,318.5c6,3,21,16,30,22,16,11,38,21,51,36"/>
					<path id="path1976" d="m155.37,319.16c1.055,2.343,3.399,3.402,5.419,4.896,3.424,2.532,6.752,5.205,10.102,7.834,6.279,4.926,12.582,9.752,19.288,14.088,15.599,10.085,32.935,18.28,45.443,32.4,2.278,2.571,6.039-1.209,3.762-3.762-12.463-13.977-29.644-22.513-45.338-32.238-7.269-4.504-14.035-9.646-20.79-14.875-3.007-2.329-6.011-4.656-9.113-6.855-2.559-1.814-4.766-3.851-7.989-3.416-0.919,0.124-1.088,1.253-0.784,1.928z"/>
				</g>
			</g><g id="g1978" transform="translate(-155.17113,-24.281618)">
				<g id="g1980">
					<path id="path1982" fill="none" d="m234.5,375.5c6,5,64-12,76-18"/>
					<path id="path1984" d="m234.09,375.5c-0.019,0.21-0.038,0.42-0.057,0.631-0.078,0.854,0.644,1.607,1.403,1.843,4.768,1.476,10.474,0.141,15.255-0.633,8.108-1.312,16.122-3.392,24.048-5.514,7.987-2.138,15.914-4.512,23.747-7.159,3.387-1.146,12.508-2.831,13.122-6.862,0.079-0.521-0.045-1.012-0.528-1.297-3.264-1.936-11.054,2.673-14.743,3.92-8.257,2.791-16.628,5.26-25.042,7.529-8.066,2.177-16.212,4.111-24.453,5.504-1.555,0.263-12.579,0.138-12.752,2.038z"/>
				</g>
			</g><g id="g1986" transform="translate(-155.17113,-24.281618)">
				<g id="g1988">
					<path id="path1990" fill="none" d="m255.5,360.5c14,0,39-3,50-12"/>
					<path id="path1992" d="m255.16,361.72c8.718,1.534,18.413-0.238,27.016-1.834,4.988-0.926,9.898-2.258,14.64-4.063,3.511-1.336,8.227-3.008,10.066-6.514,0.659-1.256-0.413-2.697-1.813-2.358-3.703,0.896-7.063,3.68-10.641,5.103-4.305,1.713-8.841,2.839-13.362,3.809-8.566,1.84-17.341,1.813-25.907,3.416-1.205,0.225-1.219,2.226,0.001,2.441z"/>
				</g>
			</g><g id="g1994" transform="translate(-155.17113,-24.281618)">
				<g id="g1996">
					<path id="path1998" fill="none" d="m313.5,327.5c-1,7-11,19-16,26"/>
					<path id="path2000" d="m311.96,327.6c-2.455,4.458-4.832,8.751-7.83,12.89-2.417,3.337-8.555,8.711-8.379,13.009,0.046,1.118,1.082,2.006,2.21,1.684,2.234-0.639,3.192-2.502,4.516-4.311,1.938-2.647,3.874-5.294,5.743-7.991,2.852-4.114,6.538-9.288,6.688-14.481,0.046-1.57-2.194-2.17-2.948-0.8z"/>
				</g>
			</g><g id="g2002" transform="translate(-155.17113,-24.281618)">
				<g id="g2004">
					<path id="path2006" fill="none" d="m301.5,287.5c3,2,12,32,15,42"/>
					<path id="path2008" d="m300.41,288.21c-0.326,2.473,1.852,5.603,2.71,7.904,1.451,3.89,2.756,7.835,4.036,11.784,2.392,7.378,4.251,14.982,6.836,22.29,1.108,3.133,5.833,1.908,5.018-1.383-1.956-7.896-4.812-15.694-7.405-23.398-1.397-4.151-2.852-8.286-4.513-12.341-1.01-2.469-1.776-5.59-4.485-6.53-1.18-0.409-2.061,0.639-2.197,1.674z"/>
				</g>
			</g><g id="g2010" transform="translate(-155.17113,-24.281618)">
				<g id="g2012">
					<path id="path2014" fill="none" d="m195.5,266.5c12,1,25,3,37,5,24,3,52,18,73,18"/>
					<path id="path2016" d="m195.34,267.1c4.496,1.847,9.571,2.308,14.354,3.058,5.582,0.875,11.156,1.772,16.729,2.698,9.79,1.626,19.268,3.593,28.763,6.523,9.442,2.914,18.736,6.283,28.245,8.985,4.346,1.235,8.751,2.237,13.213,2.947,3.203,0.51,6.877,1.44,9.83-0.15,1.278-0.689,1.219-2.615,0-3.319-2.838-1.639-6.697-1.176-9.893-1.671-4.509-0.699-8.945-1.872-13.333-3.099-9.539-2.667-18.869-6.042-28.343-8.923-9.583-2.914-19.211-4.555-29.087-6.08-9.529-1.471-20.956-4.276-30.479-2.166-0.663,0.146-0.514,0.986,0.001,1.197z"/>
				</g>
			</g><g id="g2018" transform="translate(-155.17113,-24.281618)">
				<g id="g2020">
					<path id="path2022" fill="none" d="m193.5,267.5c-6,13-15,29-23,39"/>
					<path id="path2024" d="m191.93,266.58c-3.912,6.684-7.224,13.708-11.131,20.402-3.721,6.375-7.94,12.393-11.434,18.853-0.722,1.335,0.955,2.588,2.062,1.59,5.663-5.103,9.423-11.586,13.271-18.163,3.965-6.777,7.907-13.87,10.552-21.282,0.706-1.981-2.303-3.138-3.32-1.4z"/>
				</g>
			</g><g id="g2026" transform="translate(-155.17113,-24.281618)">
				<g id="g2028">
					<path id="path2030" fill="none" d="m168.5,306.5c10,1,21,3,30,1"/>
					<path id="path2032" d="m168.5,308.61c5.426,0.624,10.83,1.397,16.278,1.816,4.51,0.347,10.588,1.028,14.58-1.459,1.145-0.713,1.127-2.839-0.406-3.105-4.548-0.789-9.495,0.324-14.174,0.088-5.439-0.276-10.858-1.047-16.278-1.559-2.728-0.257-2.654,3.914,0,4.219z"/>
				</g>
			</g><g id="g2034" transform="translate(-155.17113,-24.281618)">
				<g id="g2036">
					<path id="path2038" fill="none" d="m214.5,273.5c-5,11-17,28-21,35"/>
					<path id="path2040" d="m212.99,272.62c-3.884,6.745-7.856,13.418-12.061,19.97-2.119,3.301-4.276,6.578-6.398,9.878-1.425,2.216-2.727,3.692-2.299,6.382,0.106,0.664,0.997,1.148,1.615,0.917,2.5-0.937,3.234-2.809,4.607-5.006,2.079-3.325,4.22-6.612,6.319-9.924,4.224-6.663,8.687-13.427,11.408-20.872,0.693-1.895-2.224-3.025-3.191-1.345z"/>
				</g>
			</g><g id="g2042" transform="translate(-155.17113,-24.281618)">
				<g id="g2044">
					<path id="path2046" fill="none" d="m197.5,301.5c25,19,58,36,87,49"/>
					<path id="path2048" d="m196.25,302.75c11.823,10.757,26.661,18.875,40.512,26.679,15.096,8.505,30.693,16.097,46.48,23.226,2.912,1.315,5.45-2.999,2.52-4.311-15.281-6.84-30.342-14.164-45.066-22.138-14.681-7.95-28.149-17.472-42.301-26.235-1.702-1.053-3.641,1.419-2.145,2.779z"/>
				</g>
			</g><g id="g2050" transform="translate(-155.17113,-24.281618)">
				<g id="g2052">
					<path id="path2054" fill="none" d="m172.5,310.5c28,17,52,40,86,49"/>
					<path id="path2056" d="m171.52,312.18c27.017,18.798,54.039,40.936,86.309,49.761,3.154,0.863,4.493-4.026,1.346-4.881-16.152-4.389-30.699-12.13-44.698-21.154-13.716-8.842-26.572-19.389-40.993-27.085-2.24-1.196-4.004,1.939-1.964,3.359z"/>
				</g>
			</g><g id="g2058" transform="translate(-155.17113,-24.281618)">
				<g id="g2060">
					<path id="path2062" fill="none" d="m305.5,273.5c8,6,17,27,24,38"/>
					<path id="path2064" d="m304.35,274.17c1.035,2.439,3.269,4.475,4.754,6.665,2.28,3.362,4.31,6.855,6.284,10.404,3.928,7.063,7.163,14.999,11.991,21.499,1.86,2.505,5.743,0.392,4.25-2.484-3.981-7.668-8.357-15.275-12.687-22.756-2.625-4.535-7.243-14.242-13.083-15.29-1.229-0.221-1.977,0.86-1.509,1.962z"/>
				</g>
			</g><g id="g2066" transform="translate(-155.17113,-24.281618)">
				<g id="g2068">
					<path id="path2070" fill="none" d="m307.5,358.5c1,0,6-1,10-1"/>
					<path id="path2072" d="m307.5,359.17c0.539,0.028,1.068,0.069,1.53,0.376,0.735,0.488,2.096,0.206,2.918,0.174,1.969-0.078,4.695,0.278,6.416-0.74,1.088-0.645,1.131-2.321,0-2.955-1.8-1.008-4.367-0.325-6.314,0.049-0.898,0.173-1.778,0.401-2.652,0.666-0.734,0.223-1.09,0.986-1.897,1.095-0.834,0.11-0.885,1.288-0.001,1.335z"/>
				</g>
			</g><g id="g2074" transform="translate(-155.17113,-24.281618)">
				<g id="g2076">
					<path id="path2078" fill="none" d="m335.5,255.5c3,5,8,26,12,35"/>
					<path id="path2080" d="m334.07,257.13c1.464,5.682,3.584,11.309,5.27,16.942,1.758,5.875,3.247,12.177,6.037,17.67,1.256,2.474,5.44,0.737,4.498-1.896-2.18-6.094-4.285-12.168-6.19-18.36-1.567-5.091-2.792-11.489-5.827-15.953-1.299-1.909-4.395-0.755-3.788,1.597z"/>
				</g>
			</g><g id="g2082" transform="translate(-155.17113,-24.281618)">
				<g id="g2084">
					<path id="path2086" fill="none" d="m188.5,246.5c37,12,82,14,117,29"/>
					<path id="path2088" d="m187.52,248.17c8.757,3.709,18.398,5.691,27.653,7.753,10.025,2.234,20.126,4.132,30.212,6.068,20.241,3.886,40.259,8.279,59.413,16.04,2.752,1.115,4.735-3.608,2.022-4.798-17.986-7.889-37.517-11.807-56.714-15.479-10.109-1.935-20.25-3.702-30.342-5.731-10.361-2.083-20.457-5.111-30.755-7.388-2.031-0.447-3.595,2.643-1.489,3.535z"/>
				</g>
			</g><g id="g2090" transform="translate(-155.17113,-24.281618)">
				<g id="g2092">
					<path id="path2094" fill="none" d="m188.5,247.5c13-3,41-12,48-18"/>
					<path id="path2096" d="m188.93,249.05c9.201-1.441,18.247-4.558,27.024-7.585,7.22-2.491,16.331-5.227,22.248-10.264,2.399-2.042-1.013-5.248-3.397-3.397-6.146,4.77-13.971,7.334-21.251,9.997-8.386,3.066-16.971,5.46-25.477,8.154-2.016,0.637-1.155,3.409,0.853,3.095z"/>
				</g>
			</g><g id="g2098" transform="translate(-155.17113,-24.281618)">
				<g id="g2100">
					<path id="path2102" fill="none" d="m237.5,227.5c15,14,70,26,93,29"/>
					<path id="path2104" d="m236.88,227.33c-1.464,4.91,11.177,9.558,14.484,11.067,8.496,3.879,17.469,6.728,26.42,9.339,9.667,2.82,19.472,5.159,29.324,7.229,7.516,1.579,15.709,3.874,23.394,3.692,2.443-0.058,2.925-3.54,0.573-4.235-7.251-2.146-15.182-2.781-22.635-4.289-9.87-1.997-19.671-4.355-29.369-7.065-9.303-2.6-18.553-5.602-27.393-9.518-3.248-1.438-6.403-3.088-9.386-5.017-0.816-0.529-4.681-3.655-5.412-1.203z"/>
				</g>
			</g><g id="g2106" transform="translate(-155.17113,-24.281618)">
				<g id="g2108">
					<path id="path2110" fill="none" d="m176.5,268.5c-5,6-10,17-13,25"/>
					<path id="path2112" d="m174.87,266.87c-6.451,7.345-10.351,16.925-13.82,25.957-1.176,3.061,3.756,4.395,4.904,1.352,3.245-8.598,7.125-17.047,12.541-24.511,1.545-2.129-1.908-4.755-3.625-2.798z"/>
				</g>
			</g><g id="g2114" transform="translate(-155.17113,-24.281618)">
				<g id="g2116">
					<path id="path2118" fill="none" d="m338.5,395.5c3,2,4,9,5,14,3-2,7-3,10-6"/>
					<path id="path2120" d="m337.94,396.06c0.181-0.198,0.361-0.396,0.542-0.593-0.6,0.563-0.625,1.436-0.275,2.131,1.929,3.841,2.396,8.314,3.125,12.497,0.252,1.446,2.148,2.04,3.309,1.347,3.497-2.091,8.106-3.314,9.977-7.295,0.426-0.907-0.289-2.339-1.456-1.894-3.651,1.395-7.522,3.144-10.794,5.298,1.103,0.449,2.206,0.897,3.309,1.347-0.991-4.521-1.572-9.804-4.707-13.431-0.49-0.567-1.514-0.688-2.131-0.275,0.023-0.128,0.045-0.256,0.068-0.384-0.773-0.478-1.624,0.628-0.967,1.252z"/>
				</g>
			</g><g id="g2122" transform="translate(-155.17113,-24.281618)">
				<g id="g2124">
					<path id="path2126" fill="none" d="m259.5,371.5c16,31,60,41,92,50,36,10,95,12,121-19"/>
					<path id="path2128" d="m258.27,372.22c8.554,18.208,27.357,28.84,45.184,36.225,18.736,7.761,39.02,13.833,58.869,18.02,19.913,4.201,40.629,5.275,60.808,2.552,18.784-2.535,38.807-9.634,51.213-24.678,2.1-2.547-1.417-6.212-3.68-3.68-25.97,29.067-73.145,28.245-108.31,21.101-18.202-3.698-36.584-9.087-54.029-15.429-19.089-6.94-36.976-17.78-47.588-35.554-0.96-1.607-3.243-0.203-2.469,1.443z"/>
				</g>
			</g></svg>
